# xmcd
#
# Track frame offsets: 
#        150
#        10192
#        25457
#        44237
#        71890
#        91737
#        106612
#        123192
#        144655
#        160022
#        181625
#        198597
#        220240
#        239885
#        255187
#        268635
#        289005
#
# Disc length: 4154 seconds
#
# Revision: 6
# Processed by: cddbd v1.5.2PL0 Copyright (c) Steve Scherf et al.
# Submitted via: ExactAudioCopy v1.3
#
DISCID=f2103811
DTITLE=Ibrica Jusic - Retrospektiva
DYEAR=2002
DGENRE=Chanson
TTITLE0=Ponoc
TTITLE1=Celuloidni pajac
TTITLE2=Jos uvijek ne znam neke vazne stvari
TTITLE3=Macka
TTITLE4=Pismo cali
TTITLE5=Covjek bez kafica
TTITLE6=Nepal...Ganges...Brahmaputra
TTITLE7=Sit svega toga
TTITLE8=Jubi sam vasu 'cer
TTITLE9=U svakom slucaju te volim
TTITLE10=Nije bilo lako
TTITLE11=Shalom Sara
TTITLE12=La Vie
TTITLE13=Qu'on Amene le Vin
TTITLE14=Amsterdem
TTITLE15=Nemoj poci sad
TTITLE16=Trubac sa Seine
EXTD=CROATIA RECORDS\nCD D 5 04792 6\nStereo A D D\nHDS - BIEM\nP i C 
EXTD=1993., Croatia Recorda YEAR: 2002
EXTT0=Ripped By: Dr. REJ
EXTT1=Ripped By: Dr. REJ
EXTT2=Ripped By: Dr. REJ
EXTT3=Ripped By: Dr. REJ
EXTT4=Ripped By: Dr. REJ
EXTT5=Ripped By: Dr. REJ
EXTT6=Ripped By: Dr. REJ
EXTT7=Ripped By: Dr. REJ
EXTT8=Ripped By: Dr. REJ
EXTT9=Ripped By: Dr. REJ
EXTT10=Ripped By: Dr. REJ
EXTT11=Ripped By: Dr. REJ
EXTT12=Ripped By: Dr. REJ
EXTT13=Ripped By: Dr. REJ
EXTT14=Ripped By: Dr. REJ
EXTT15=Ripped By: Dr. REJ
EXTT16=Ripped By: Dr. REJ
PLAYORDER=
